<?xml version="1.0" encoding="UTF-8" standalone="no"?>
<!-- Svg Vector Icons : http://www.onlinewebfonts.com/icon -->

<svg
   version="1.1"
   x="0px"
   y="0px"
   viewBox="0 0 1000 1000"
   enable-background="new 0 0 1000 1000"
   xml:space="preserve"
   id="svg876"
   sodipodi:docname="finger.svg"
   inkscape:version="1.1.2 (1:1.1+202202050950+0a00cf5339)"
   xmlns:inkscape="http://www.inkscape.org/namespaces/inkscape"
   xmlns:sodipodi="http://sodipodi.sourceforge.net/DTD/sodipodi-0.dtd"
   xmlns="http://www.w3.org/2000/svg"
   xmlns:svg="http://www.w3.org/2000/svg"><defs
   id="defs880" /><sodipodi:namedview
   id="namedview878"
   pagecolor="#ffffff"
   bordercolor="#666666"
   borderopacity="1.0"
   inkscape:pageshadow="2"
   inkscape:pageopacity="0.0"
   inkscape:pagecheckerboard="0"
   showgrid="false"
   inkscape:zoom="0.867"
   inkscape:cx="645.32872"
   inkscape:cy="602.65283"
   inkscape:window-width="1920"
   inkscape:window-height="1052"
   inkscape:window-x="0"
   inkscape:window-y="0"
   inkscape:window-maximized="1"
   inkscape:current-layer="g874" />
<metadata
   id="metadata868"> Svg Vector Icons : http://www.onlinewebfonts.com/icon </metadata>
<g
   id="g874"><g
     transform="translate(0.000000,462.000000) scale(0.100000,-0.100000)"
     id="g872"
     style="fill:#ffffff;fill-opacity:1"><path
       d="M3179.2,4477.5c-240.7-85.2-440.9-270.5-528.2-487.7l-49-119.3l-6.4-2310.9l-4.3-2311l-176.8-83c-225.8-106.5-445.2-319.5-543.1-526.1c-108.6-227.9-138.4-394-125.7-700.7c14.9-302.5,59.6-500.5,181-792.3c157.6-383.4,283.3-562.3,813.6-1156.5c487.7-547.4,675.2-820,726.3-1052.2c44.7-206.6,213-281.1,360-157.6c68.2,55.4,68.2,59.6,59.6,210.8c-21.3,317.4-193.8,581.5-941.4,1427.1c-440.9,500.5-579.3,724.2-707.1,1150.2c-46.9,155.5-57.5,232.1-57.5,434.5c0,296.1,42.6,430.3,189.6,594.3c91.6,100.1,313.1,236.4,387.6,236.4c55.4,0,213,85.2,232.2,123.5c8.5,19.2,21.3,1114,27.7,2432.4c12.8,2666.6,0,2453.7,157.6,2594.2c193.8,170.4,532.5,119.3,660.3-102.2c44.7-72.4,44.7-106.5,55.4-1827.5l10.6-1755.1l70.3-61.8c98-87.3,206.6-85.2,293.9,4.3c61.8,63.9,61.8,66,72.4,387.6c12.8,351.4,25.6,398.3,147,513.3c132.1,125.7,398.3,138.4,549.5,21.3c132-100.1,161.9-191.7,174.6-558c12.8-325.9,12.8-328,72.4-379.1c80.9-68.2,204.5-70.3,283.3,0c55.4,46.9,59.6,63.9,72.4,281.2c17,270.5,51.1,364.2,159.7,447.3c68.2,51.1,100.1,59.6,251.3,66c238.6,10.7,321.6-36.2,396.2-217.3c46.9-115,53.2-168.3,63.9-536.7l12.8-411.1l59.6-57.5c46.9-49,76.7-59.6,153.4-57.5c51.1,0,110.8,14.9,129.9,31.9c55.4,44.7,93.7,155.5,93.7,264.1c0,123.5,44.7,232.2,115,276.9c78.8,51.1,332.3,83.1,443,53.3c119.3-34.1,217.2-136.3,264.1-279c34.1-100.1,38.3-223.6,46.9-1020.2c12.8-1395.1-27.7-1863.7-200.2-2385.5c-102.2-306.7-232.1-545.3-524-958.5c-293.9-417.5-338.7-506.9-351.4-726.3c-10.6-159.7-10.6-159.7,57.5-217.3c136.3-117.1,321.6-49,351.4,125.7c27.7,164,59.6,227.9,285.4,547.4c372.7,532.5,496.3,762.5,617.7,1156.6C8233.5-2836.7,8257-2579,8257-1205.2C8257,38.7,8248.4,141,8127,383.7c-83.1,159.7-213,287.5-377,362.1c-164,74.6-460.1,89.5-677.3,31.9l-151.2-40.4l-36.2,134.2c-66,230-208.7,411.1-394,506.9c-259.9,129.9-653.9,115-913.7-38.3l-72.4-42.6l-93.7,108.6c-142.7,161.9-353.6,259.9-587.9,274.8c-149.1,10.7-200.2,4.3-330.1-40.5l-155.5-51.1v1033c0,568.7-10.6,1096.9-21.3,1171.5c-40.5,281.1-221.5,523.9-485.6,647.5C3639.3,4530.7,3373.1,4545.6,3179.2,4477.5z"
       id="path870"
       style="fill:#ffffff;fill-opacity:1" /></g></g>
</svg>
